<svg xmlns="http://www.w3.org/2000/svg" width="18.89" height="18.902" viewBox="0 0 18.89 18.902">
  <g id="ask_doubt_lined" data-name="ask doubt_lined" transform="translate(-64.986 -64)">
    <path id="Path_23594" data-name="Path 23594" d="M72.615,64h3.619l.33.03c1.174.064,2.347.094,3.516.192A3.868,3.868,0,0,1,83.5,67.047a14.24,14.24,0,0,1,.3,2c.044.32.054.646.079.971v2.953c-.01.054-.02.108-.025.163-.064.759-.118,1.519-.192,2.278a3.973,3.973,0,0,1-3.378,3.5c-.907.108-1.824.133-2.741.187a.36.36,0,0,0-.335.187c-.656,1.055-1.321,2.1-1.977,3.156a.944.944,0,0,1-.493.424.83.83,0,0,1-.981-.39q-1.013-1.6-2.022-3.215a.269.269,0,0,0-.247-.153q-1.28-.067-2.559-.148a3.963,3.963,0,0,1-3.609-2.988,9.969,9.969,0,0,1-.251-1.913c-.059-1.139-.069-2.288-.079-3.427a18.618,18.618,0,0,1,.256-3.141,3.977,3.977,0,0,1,3.5-3.254c1.183-.094,2.367-.133,3.555-.2C72.4,64.02,72.506,64.01,72.615,64Zm1.854,16.981c.054-.089.1-.153.143-.217.488-.774.981-1.548,1.464-2.327a1.5,1.5,0,0,1,1.282-.74c.843-.039,1.681-.089,2.525-.148A2.545,2.545,0,0,0,82.2,75.533a14.343,14.343,0,0,0,.227-2.051,32.93,32.93,0,0,0-.133-5.4,2.646,2.646,0,0,0-2.15-2.436,15.4,15.4,0,0,0-1.908-.158,76.511,76.511,0,0,0-9.146.1,2.618,2.618,0,0,0-2.475,2.169,26.015,26.015,0,0,0-.222,2.623,32.735,32.735,0,0,0,.168,4.714,2.647,2.647,0,0,0,2.451,2.451c.838.074,1.681.113,2.52.148a1.562,1.562,0,0,1,1.366.789c.473.779.966,1.543,1.45,2.312C74.385,80.853,74.419,80.907,74.469,80.981Z" fill="#606060"/>
    <path id="Path_23595" data-name="Path 23595" d="M201.35,116.9a3.561,3.561,0,0,1,1.622.385,2.178,2.178,0,0,1,.966,3.111,4.34,4.34,0,0,1-1.095,1.282c-.079.069-.163.133-.242.2a1.669,1.669,0,0,0-.735,1.5c.044.69-.345.794-.828.8-.537.01-.745-.2-.779-.73a2.742,2.742,0,0,1,1.178-2.569,3.85,3.85,0,0,0,.685-.611,1.532,1.532,0,0,0,.311-.611.855.855,0,0,0-.715-1.065,3.334,3.334,0,0,0-.966-.03,1.037,1.037,0,0,0-.754.478c-.054.074-.1.153-.158.227a.661.661,0,0,1-.863.281.756.756,0,0,1-.533-.794,1.778,1.778,0,0,1,.888-1.351A3.4,3.4,0,0,1,201.35,116.9Z" transform="translate(-126.877 -50.289)" fill="#606060"/>
    <path id="Path_23596" data-name="Path 23596" d="M229.273,281.546a1.174,1.174,0,1,1,1.183-1.183A1.172,1.172,0,0,1,229.273,281.546Z" transform="translate(-155.071 -204.589)" fill="#606060"/>
  </g>
</svg>
