<svg xmlns="http://www.w3.org/2000/svg" width="19.148" height="20.463" viewBox="0 0 19.148 20.463">
  <g id="exam_lined" transform="translate(-77 -64)">
    <path id="Path_23603" data-name="Path 23603" d="M86.856,64c.133.032.272.059.406.1a2.984,2.984,0,0,1,1.4.806c.828.849,1.655,1.7,2.472,2.557a3,3,0,0,1,.822,2.162c-.005,1.7,0,3.4,0,5.093v.251c.262.064.523.112.774.187a4.758,4.758,0,1,1-4.56,8.094.5.5,0,0,0-.3-.1q-4.509-.008-9.012-.005a1.788,1.788,0,0,1-1.81-1.42A2.574,2.574,0,0,1,77,81.192V65.965a1.8,1.8,0,0,1,1.506-1.938c.011-.005.021-.016.032-.021Q82.694,64,86.856,64Zm3.887,10.983c.005-.064.011-.117.011-.171V69.6a1.935,1.935,0,0,0-.587-1.415q-1.145-1.169-2.28-2.355a1.938,1.938,0,0,0-1.479-.625c-2.5.005-5,0-7.5,0-.491,0-.715.224-.715.721V81.229c0,.5.224.721.721.721h8.217A4.8,4.8,0,0,1,90.743,74.983Zm4.207,4.73a3.577,3.577,0,1,0-3.609,3.556A3.582,3.582,0,0,0,94.95,79.713Z" transform="translate(0)" fill="#606060"/>
    <path id="Path_23604" data-name="Path 23604" d="M127.188,173.7H125.65a.6.6,0,0,1-.651-.6.611.611,0,0,1,.662-.6h3.081a.6.6,0,0,1,.651.6.608.608,0,0,1-.662.6Z" transform="translate(-45.436 -102.707)" fill="#606060"/>
    <path id="Path_23605" data-name="Path 23605" d="M127.078,233.7h-1.522a.6.6,0,1,1,0-1.2h3.081a.6.6,0,1,1,0,1.2Z" transform="translate(-45.343 -159.504)" fill="#606060"/>
    <path id="Path_23606" data-name="Path 23606" d="M127.2,292.358h1.522a.6.6,0,1,1,0,1.2h-3.059a.6.6,0,1,1,0-1.2C126.179,292.353,126.691,292.358,127.2,292.358Z" transform="translate(-45.436 -216.163)" fill="#606060"/>
    <path id="Path_23607" data-name="Path 23607" d="M312.753,330.559c.336-.406.657-.785.977-1.169a.6.6,0,0,1,.614-.24.59.59,0,0,1,.358.94c-.534.673-1.089,1.329-1.65,1.975a.574.574,0,0,1-.945-.117c-.235-.432-.448-.876-.662-1.319a.587.587,0,0,1,.272-.785.6.6,0,0,1,.8.246C312.587,330.222,312.657,330.377,312.753,330.559Z" transform="translate(-221.871 -250.979)" fill="#606060"/>
  </g>
</svg>
