<svg xmlns="http://www.w3.org/2000/svg" width="19.643" height="19.638" viewBox="0 0 19.643 19.638">
  <path id="home_lined" d="M52.233,40.332a2.941,2.941,0,0,0-.816-1.231c-2.3-2.287-4.625-4.617-6.878-6.874l-.009-.009a3.222,3.222,0,0,0-1.27-.9L43.2,31.3h-.987l-.064.021a3.107,3.107,0,0,0-1.261.885l-.051.051c-2.325,2.33-4.694,4.7-6.985,6.989l-.034.034a2.241,2.241,0,0,0-.167.175,2.044,2.044,0,0,0-.41,2.06,2.011,2.011,0,0,0,1.6,1.4c.085.017.167.026.248.034v5.01a2.4,2.4,0,0,0,2.479,2.475h2.719a.983.983,0,0,0,1.09-1.09v-4.1c0-.389.171-.56.56-.56.154,0,.3,0,.457,0,.346,0,.7.009,1.06-.009a.565.565,0,0,1,.427.141.6.6,0,0,1,.162.449c-.017.983-.013,1.983-.009,2.945,0,.393,0,.782,0,1.18a.972.972,0,0,0,1.047,1.039c.915,0,1.864,0,2.791,0a2.584,2.584,0,0,0,.594-.064,2.387,2.387,0,0,0,1.855-2.364c0-1.167,0-2.355,0-3.505V42.961a2.049,2.049,0,0,0,1.291-.56,2.345,2.345,0,0,0,.616-1.013l.021-.068v-.928Zm-6.279,4.839A2.394,2.394,0,0,0,44.047,42.8a1.237,1.237,0,0,0-.244-.034c-.205,0-.415,0-.616-.009-.526-.009-1.073-.021-1.612.017a2.332,2.332,0,0,0-2.129,2.27c-.013.885-.013,1.783-.009,2.65v.8h-1.9a.473.473,0,0,1-.526-.534V42.132A.993.993,0,0,0,35.9,41.025h-.658a.163.163,0,0,1-.18-.111.16.16,0,0,1,.043-.205c.2-.2.4-.4.594-.594.1-.1.2-.2.3-.3q1.616-1.616,3.232-3.227l3.232-3.232c.167-.167.235-.171.244-.171h0c.009,0,.081,0,.239.162l.115.115C45.4,35.8,47.822,38.221,50.207,40.6c.18.18.167.235.15.291a.169.169,0,0,1-.167.133c-.18,0-.359,0-.547,0H49.45a.973.973,0,0,0-1.043,1.047v5.831c0,.436-.162.6-.594.6H45.967v-.979C45.958,46.753,45.958,45.954,45.954,45.171Z" transform="translate(-32.861 -31.05)" fill="#606060" stroke="#fff" stroke-width="0.5"/>
</svg>
