<svg xmlns="http://www.w3.org/2000/svg" width="24" height="24" viewBox="0 0 24 24">
  <g id="More_icon" transform="translate(-311 -708)">
    <rect id="Rectangle_23057" data-name="Rectangle 23057" width="24" height="24" transform="translate(311 708)" opacity="0"/>
    <g id="menu" transform="translate(214.847 575.139)">
      <path id="Path_23590" data-name="Path 23590" d="M116.285,137.8H100.023a1.319,1.319,0,0,0-.875,2.224,1.393,1.393,0,0,0,1.007.4h13.679c.833,0,1.7,0,2.548-.006a1.314,1.314,0,0,0,1.259-1.708A1.35,1.35,0,0,0,116.285,137.8Z" transform="translate(-0.088)" fill="#606060" stroke="#fff" stroke-width="0.9"/>
      <path id="Path_23592" data-name="Path 23592" d="M116.247,329.5h-14.8c-.474,0-.947,0-1.421.006a1.328,1.328,0,0,0-1.061.539,1.293,1.293,0,0,0-.186,1.169,1.323,1.323,0,0,0,1.349.917h16.262a1.316,1.316,0,0,0,1.193-1.642A1.323,1.323,0,0,0,116.247,329.5Z" transform="translate(-0.02 -180.209)" fill="#606060" stroke="#fff" stroke-width="0.9"/>
      <path id="Path_23593" data-name="Path 23593" d="M112.7,137.8H99.77a1.2,1.2,0,0,0-.982,1.253,1.512,1.512,0,0,0,.286.971,1,1,0,0,0,.8.4h10.879c.663,0,1.349,0,2.026-.006a1,1,0,0,0,.849-.539,1.592,1.592,0,0,0,.153-1.169A1.111,1.111,0,0,0,112.7,137.8Z" transform="translate(-0.094 5.742)" fill="#606060" stroke="#fff" stroke-linecap="round" stroke-width="0.9"/>
    </g>
  </g>
</svg>
