<svg xmlns="http://www.w3.org/2000/svg" width="18.683" height="18.715" viewBox="0 0 18.683 18.715">
  <g id="statistical_lined" transform="translate(-51 -68.122)">
    <path id="Path_23598" data-name="Path 23598" d="M51,242.584a.74.74,0,0,1,.8-.587c1.2.011,2.408.006,3.61.006.525,0,.745.273.745.923v9.5c0,.627-.219.906-.717.906-1.211,0-2.417-.011-3.628.006a.752.752,0,0,1-.8-.564Zm3.925,9.227v-8.27H52.234v8.27Z" transform="translate(0 -166.501)" fill="#606060"/>
    <path id="Path_23599" data-name="Path 23599" d="M199,79.228V70.753c0-.081,0-.161,0-.242a.617.617,0,0,1,.612-.63c.42-.01.841-.005,1.256-.005h2.572c.475,0,.708.252.708.776V87.8c0,.524-.233.776-.708.776h-3.719c-.5,0-.726-.247-.726-.8Zm3.92,8.006v-16h-2.682v16Z" transform="translate(-141.238 -1.753)" fill="#606060"/>
    <path id="Path_23600" data-name="Path 23600" d="M347.2,162.635v-5.87c0-.546.215-.765.754-.765H351.6c.53,0,.749.229.749.77v11.773c0,.527-.219.751-.726.751h-3.7c-.5,0-.722-.229-.722-.737Zm3.916,5.418V157.26h-2.691v10.793Z" transform="translate(-282.667 -82.467)" fill="#606060"/>
  </g>
</svg>
